<svg version="1.1" id="Layer_1" xmlns="http://www.w3.org/2000/svg" xmlns:xlink="http://www.w3.org/1999/xlink" x="0px" y="0px"
	 width="100%" viewBox="0 0 924 628" enable-background="new 0 0 924 628" xml:space="preserve">
<path fill="#FEFEFF" opacity="1.000000" stroke="none" 
	d="
M498.000000,629.000000 
	C332.000000,629.000000 166.500000,629.000000 1.000000,629.000000 
	C1.000000,419.666656 1.000000,210.333328 1.000000,1.000000 
	C309.000000,1.000000 617.000000,1.000000 925.000000,1.000000 
	C925.000000,210.333328 925.000000,419.666656 925.000000,629.000000 
	C782.833313,629.000000 640.666687,629.000000 498.000000,629.000000 
M515.427368,546.986084 
	C516.925354,547.051880 518.528870,546.794006 519.902405,547.241760 
	C524.811340,548.841614 525.818115,546.673767 525.737915,542.212341 
	C525.531250,530.717102 525.668213,519.215698 525.667969,507.716766 
	C525.667908,504.117065 525.667908,500.517365 525.667908,497.014679 
	C529.460449,497.014679 532.515808,497.014679 536.295227,497.014679 
	C536.295227,514.475769 536.295227,531.513489 536.295227,548.403198 
	C543.149414,548.403198 549.257568,548.403198 555.695557,548.403198 
	C555.695557,415.129486 555.695557,282.124634 555.695557,148.962097 
	C553.646484,148.962097 551.986511,148.962112 550.326538,148.962112 
	C463.334656,148.962082 376.342773,148.961823 289.350891,148.962463 
	C282.665955,148.962509 282.662170,148.965347 282.662140,155.846268 
	C282.661255,284.167633 282.661255,412.489014 282.662537,540.810364 
	C282.662537,542.143250 282.233887,543.722595 282.798828,544.750854 
	C283.629242,546.262268 285.100403,548.390686 286.430389,548.489868 
	C292.014893,548.906433 297.648438,548.665833 303.894714,548.665833 
	C303.894714,422.366730 303.894714,296.649811 303.894714,171.064636 
	C381.570374,171.064636 458.599396,171.064636 535.536255,171.064636 
	C535.536255,191.945770 535.536255,212.343613 535.536255,232.665024 
	C532.077454,232.665024 528.983337,232.665024 525.483154,232.665024 
	C525.483154,215.407181 525.483154,198.476654 525.483154,180.959412 
	C521.936890,181.150787 518.782532,181.039673 515.731201,181.547394 
	C510.283813,182.453812 504.926849,183.900146 499.481689,184.823761 
	C487.199585,186.907059 474.889587,188.826965 462.585632,190.779968 
	C449.637970,192.835159 436.689331,194.885117 423.731384,196.873856 
	C413.893921,198.383698 404.041138,199.794083 394.038208,201.271912 
	C393.937408,203.058411 393.781921,204.529984 393.781738,206.001587 
	C393.770447,311.658417 393.799347,417.315247 393.676544,522.971924 
	C393.671265,527.517273 395.438293,528.626038 399.485962,528.927551 
	C406.031586,529.415100 412.572174,530.239502 419.049072,531.317322 
	C428.891724,532.955078 438.653320,535.080627 448.497040,536.710999 
	C454.976105,537.784119 461.546722,538.293457 468.061768,539.164368 
	C472.447205,539.750549 476.814514,540.484192 481.177185,541.226807 
	C492.294708,543.119080 503.405090,545.053467 515.427368,546.986084 
M626.240356,316.845245 
	C626.055054,318.162079 626.049438,319.535370 625.656128,320.786804 
	C622.473083,330.914886 619.159546,341.002106 616.003113,351.138306 
	C613.788696,358.249329 611.838074,365.442444 609.626404,372.554382 
	C606.476685,382.683075 603.151855,392.757233 599.985046,402.880707 
	C597.711609,410.148621 595.648376,417.482452 593.358154,424.744843 
	C590.316162,434.391327 587.130920,443.992554 584.033020,453.621552 
	C581.617859,461.128632 579.185913,468.631104 576.868347,476.168518 
	C575.192017,481.620392 573.691040,487.126190 571.968384,493.106049 
	C584.169312,493.106049 595.814697,493.220123 607.451660,492.957336 
	C608.859558,492.925568 611.013794,491.116882 611.476379,489.694153 
	C614.518982,480.337708 617.189697,470.860382 619.986694,461.423950 
	C622.151611,454.120056 624.219238,446.785156 626.521851,439.524872 
	C628.849121,432.186859 631.528870,424.960419 633.840088,417.617706 
	C636.204468,410.105804 638.219360,402.484375 640.549377,394.961090 
	C643.594727,385.128021 646.876770,375.368225 649.912842,365.532379 
	C652.819275,356.116516 655.421021,346.605957 658.377319,337.206360 
	C661.412659,327.555634 664.855652,318.032623 667.861145,308.373108 
	C670.833191,298.820953 673.327271,289.119934 676.308899,279.571014 
	C680.469360,266.247009 684.888123,253.003677 689.350952,239.249100 
	C675.944214,239.249100 663.207642,239.249100 650.686401,239.249100 
	C649.057251,244.526199 647.513123,249.428116 646.031982,254.348999 
	C643.791626,261.792480 641.685608,269.277679 639.354553,276.692322 
	C637.047180,284.031647 634.518677,291.301208 632.111023,298.609253 
	C630.199585,304.411072 628.324219,310.224762 626.240356,316.845245 
M750.874207,342.622955 
	C764.527588,347.540588 778.200012,352.407227 791.796448,357.477692 
	C792.828003,357.862396 793.600830,359.623810 793.918091,360.889618 
	C794.037354,361.365509 792.634705,362.568146 791.727783,362.903656 
	C780.272278,367.141571 768.749939,371.199524 757.305908,375.467468 
	C743.454529,380.633148 729.651306,385.928589 715.853455,391.235992 
	C713.535217,392.127747 711.897095,393.428894 711.965454,396.540771 
	C712.185181,406.535400 712.031250,416.537964 712.070679,426.537262 
	C712.074890,427.607269 712.402893,428.676056 712.669739,430.281036 
	C721.777649,426.471771 730.393250,422.700806 739.134399,419.247559 
	C756.875793,412.238647 774.733704,405.523224 792.452026,398.457397 
	C808.239014,392.161713 823.862854,385.456390 839.656311,379.177551 
	C842.613708,378.001801 843.705139,376.376007 843.690796,373.441315 
	C843.647522,364.608673 843.542908,355.772644 843.744934,346.944397 
	C843.819214,343.701935 842.240784,342.151978 839.612793,341.158569 
	C831.974487,338.271210 824.246765,335.606842 816.685791,332.531219 
	C801.191345,326.228516 785.809021,319.650940 770.331482,313.306061 
	C755.624512,307.277161 740.871277,301.359833 726.103149,295.482147 
	C721.683899,293.723267 717.146057,292.262390 712.053162,290.447876 
	C712.053162,302.671387 711.953247,313.982178 712.196167,325.285645 
	C712.222656,326.514923 713.998230,328.283234 715.350891,328.816864 
	C726.933594,333.386414 738.605957,337.728821 750.874207,342.622955 
M129.094955,400.473206 
	C138.026474,403.954651 146.987534,407.362579 155.882019,410.936188 
	C166.969711,415.391052 177.973587,420.055054 189.072678,424.480713 
	C193.786316,426.360199 198.649872,427.863708 204.166306,429.789856 
	C204.166306,417.625946 204.289139,406.335236 204.002396,395.054962 
	C203.968613,393.725952 201.922302,391.900116 200.404373,391.251709 
	C193.791672,388.427124 187.065201,385.855499 180.314484,383.370087 
	C163.288254,377.101501 146.207260,370.981262 129.199478,364.663513 
	C126.549065,363.678955 124.168015,361.969238 121.662392,360.594879 
	C121.733109,360.050995 121.803825,359.507111 121.874542,358.963226 
	C149.064987,348.656616 176.255447,338.350037 203.814331,327.903778 
	C203.814331,315.822876 203.814331,303.575989 203.814331,291.257996 
	C203.243057,291.194794 202.696960,290.961212 202.304779,291.116425 
	C193.064362,294.773987 183.828949,298.444824 174.617020,302.173553 
	C165.850433,305.721954 157.141113,309.413086 148.353470,312.907806 
	C135.802109,317.899353 123.186958,322.730347 110.628235,327.703613 
	C101.173569,331.447632 91.623230,335.003265 82.415100,339.286804 
	C79.349709,340.712830 73.946983,340.046509 73.897797,345.634155 
	C73.809853,355.625977 73.794205,365.620880 73.997093,375.609436 
	C74.020370,376.754944 75.394875,378.438843 76.539581,378.910797 
	C93.812752,386.031494 111.152367,392.990967 129.094955,400.473206 
z"/>
<path fill="#1F4BA8" opacity="1.000000" stroke="none" 
	d="
M514.972839,546.978516 
	C503.405090,545.053467 492.294708,543.119080 481.177185,541.226807 
	C476.814514,540.484192 472.447205,539.750549 468.061768,539.164368 
	C461.546722,538.293457 454.976105,537.784119 448.497040,536.710999 
	C438.653320,535.080627 428.891724,532.955078 419.049072,531.317322 
	C412.572174,530.239502 406.031586,529.415100 399.485962,528.927551 
	C395.438293,528.626038 393.671265,527.517273 393.676544,522.971924 
	C393.799347,417.315247 393.770447,311.658417 393.781738,206.001587 
	C393.781921,204.529984 393.937408,203.058411 394.038208,201.271912 
	C404.041138,199.794083 413.893921,198.383698 423.731384,196.873856 
	C436.689331,194.885117 449.637970,192.835159 462.585632,190.779968 
	C474.889587,188.826965 487.199585,186.907059 499.481689,184.823761 
	C504.926849,183.900146 510.283813,182.453812 515.731201,181.547394 
	C518.782532,181.039673 521.936890,181.150787 525.483154,180.959412 
	C525.483154,198.476654 525.483154,215.407181 525.483154,232.665024 
	C528.983337,232.665024 532.077454,232.665024 535.536255,232.665024 
	C535.536255,212.343613 535.536255,191.945770 535.536255,171.064636 
	C458.599396,171.064636 381.570374,171.064636 303.894714,171.064636 
	C303.894714,296.649811 303.894714,422.366730 303.894714,548.665833 
	C297.648438,548.665833 292.014893,548.906433 286.430389,548.489868 
	C285.100403,548.390686 283.629242,546.262268 282.798828,544.750854 
	C282.233887,543.722595 282.662537,542.143250 282.662537,540.810364 
	C282.661255,412.489014 282.661255,284.167633 282.662140,155.846268 
	C282.662170,148.965347 282.665955,148.962509 289.350891,148.962463 
	C376.342773,148.961823 463.334656,148.962082 550.326538,148.962112 
	C551.986511,148.962112 553.646484,148.962097 555.695557,148.962097 
	C555.695557,282.124634 555.695557,415.129486 555.695557,548.403198 
	C549.257568,548.403198 543.149414,548.403198 536.295227,548.403198 
	C536.295227,531.513489 536.295227,514.475769 536.295227,497.014679 
	C532.515808,497.014679 529.460449,497.014679 525.667908,497.014679 
	C525.667908,500.517365 525.667908,504.117065 525.667969,507.716766 
	C525.668213,519.215698 525.531250,530.717102 525.737915,542.212341 
	C525.818115,546.673767 524.811340,548.841614 519.902405,547.241760 
	C518.528870,546.794006 516.925354,547.051880 514.972839,546.978516 
M525.646118,416.499908 
	C525.646118,435.909637 525.646118,455.319336 525.646118,474.669617 
	C529.455078,474.669617 532.531860,474.669617 535.667419,474.669617 
	C535.667419,401.237213 535.667419,328.146729 535.667419,255.065063 
	C532.537659,254.583237 529.653381,254.139191 525.645935,253.522247 
	C525.645935,307.707367 525.645935,361.603638 525.646118,416.499908 
M420.096924,381.436676 
	C419.945465,380.793304 420.002747,379.784943 419.611328,379.561157 
	C413.372223,375.993408 413.926727,370.085205 414.152649,364.239441 
	C414.255249,361.584747 414.077972,358.917786 414.222198,356.266968 
	C414.276978,355.260498 414.648651,353.612335 415.266937,353.401062 
	C419.697052,351.887268 420.155151,347.829254 420.870758,344.340149 
	C421.785858,339.878235 419.458557,335.739288 415.774780,333.978943 
	C413.518219,332.900604 409.156342,333.829865 406.974854,335.485077 
	C402.241638,339.076477 403.057220,347.356812 407.893402,352.278442 
	C410.387604,354.816711 411.116943,372.998596 408.834290,375.653351 
	C408.620972,375.901398 408.483307,376.242249 408.227570,376.421936 
	C403.890594,379.469727 403.311249,383.986481 404.233429,388.538788 
	C404.946320,392.057983 407.196594,395.277740 411.315063,395.142853 
	C413.827118,395.060577 417.645935,394.285645 418.485199,392.617828 
	C419.988739,389.630005 419.686920,385.733734 420.096924,381.436676 
z"/>
<path fill="#204CA8" opacity="1.000000" stroke="none" 
	d="
M626.336548,316.439209 
	C628.324219,310.224762 630.199585,304.411072 632.111023,298.609253 
	C634.518677,291.301208 637.047180,284.031647 639.354553,276.692322 
	C641.685608,269.277679 643.791626,261.792480 646.031982,254.348999 
	C647.513123,249.428116 649.057251,244.526199 650.686401,239.249100 
	C663.207642,239.249100 675.944214,239.249100 689.350952,239.249100 
	C684.888123,253.003677 680.469360,266.247009 676.308899,279.571014 
	C673.327271,289.119934 670.833191,298.820953 667.861145,308.373108 
	C664.855652,318.032623 661.412659,327.555634 658.377319,337.206360 
	C655.421021,346.605957 652.819275,356.116516 649.912842,365.532379 
	C646.876770,375.368225 643.594727,385.128021 640.549377,394.961090 
	C638.219360,402.484375 636.204468,410.105804 633.840088,417.617706 
	C631.528870,424.960419 628.849121,432.186859 626.521851,439.524872 
	C624.219238,446.785156 622.151611,454.120056 619.986694,461.423950 
	C617.189697,470.860382 614.518982,480.337708 611.476379,489.694153 
	C611.013794,491.116882 608.859558,492.925568 607.451660,492.957336 
	C595.814697,493.220123 584.169312,493.106049 571.968384,493.106049 
	C573.691040,487.126190 575.192017,481.620392 576.868347,476.168518 
	C579.185913,468.631104 581.617859,461.128632 584.033020,453.621552 
	C587.130920,443.992554 590.316162,434.391327 593.358154,424.744843 
	C595.648376,417.482452 597.711609,410.148621 599.985046,402.880707 
	C603.151855,392.757233 606.476685,382.683075 609.626404,372.554382 
	C611.838074,365.442444 613.788696,358.249329 616.003113,351.138306 
	C619.159546,341.002106 622.473083,330.914886 625.656128,320.786804 
	C626.049438,319.535370 626.055054,318.162079 626.336548,316.439209 
z"/>
<path fill="#214DA9" opacity="1.000000" stroke="none" 
	d="
M750.562866,342.381042 
	C738.605957,337.728821 726.933594,333.386414 715.350891,328.816864 
	C713.998230,328.283234 712.222656,326.514923 712.196167,325.285645 
	C711.953247,313.982178 712.053162,302.671387 712.053162,290.447876 
	C717.146057,292.262390 721.683899,293.723267 726.103149,295.482147 
	C740.871277,301.359833 755.624512,307.277161 770.331482,313.306061 
	C785.809021,319.650940 801.191345,326.228516 816.685791,332.531219 
	C824.246765,335.606842 831.974487,338.271210 839.612793,341.158569 
	C842.240784,342.151978 843.819214,343.701935 843.744934,346.944397 
	C843.542908,355.772644 843.647522,364.608673 843.690796,373.441315 
	C843.705139,376.376007 842.613708,378.001801 839.656311,379.177551 
	C823.862854,385.456390 808.239014,392.161713 792.452026,398.457397 
	C774.733704,405.523224 756.875793,412.238647 739.134399,419.247559 
	C730.393250,422.700806 721.777649,426.471771 712.669739,430.281036 
	C712.402893,428.676056 712.074890,427.607269 712.070679,426.537262 
	C712.031250,416.537964 712.185181,406.535400 711.965454,396.540771 
	C711.897095,393.428894 713.535217,392.127747 715.853455,391.235992 
	C729.651306,385.928589 743.454529,380.633148 757.305908,375.467468 
	C768.749939,371.199524 780.272278,367.141571 791.727783,362.903656 
	C792.634705,362.568146 794.037354,361.365509 793.918091,360.889618 
	C793.600830,359.623810 792.828003,357.862396 791.796448,357.477692 
	C778.200012,352.407227 764.527588,347.540588 750.562866,342.381042 
z"/>
<path fill="#204CA8" opacity="1.000000" stroke="none" 
	d="
M128.785675,400.230743 
	C111.152367,392.990967 93.812752,386.031494 76.539581,378.910797 
	C75.394875,378.438843 74.020370,376.754944 73.997093,375.609436 
	C73.794205,365.620880 73.809853,355.625977 73.897797,345.634155 
	C73.946983,340.046509 79.349709,340.712830 82.415100,339.286804 
	C91.623230,335.003265 101.173569,331.447632 110.628235,327.703613 
	C123.186958,322.730347 135.802109,317.899353 148.353470,312.907806 
	C157.141113,309.413086 165.850433,305.721954 174.617020,302.173553 
	C183.828949,298.444824 193.064362,294.773987 202.304779,291.116425 
	C202.696960,290.961212 203.243057,291.194794 203.814331,291.257996 
	C203.814331,303.575989 203.814331,315.822876 203.814331,327.903778 
	C176.255447,338.350037 149.064987,348.656616 121.874542,358.963226 
	C121.803825,359.507111 121.733109,360.050995 121.662392,360.594879 
	C124.168015,361.969238 126.549065,363.678955 129.199478,364.663513 
	C146.207260,370.981262 163.288254,377.101501 180.314484,383.370087 
	C187.065201,385.855499 193.791672,388.427124 200.404373,391.251709 
	C201.922302,391.900116 203.968613,393.725952 204.002396,395.054962 
	C204.289139,406.335236 204.166306,417.625946 204.166306,429.789856 
	C198.649872,427.863708 193.786316,426.360199 189.072678,424.480713 
	C177.973587,420.055054 166.969711,415.391052 155.882019,410.936188 
	C146.987534,407.362579 138.026474,403.954651 128.785675,400.230743 
z"/>
<path fill="#F7F9FC" opacity="1.000000" stroke="none" 
	d="
M525.645996,415.999908 
	C525.645935,361.603638 525.645935,307.707367 525.645935,253.522247 
	C529.653381,254.139191 532.537659,254.583237 535.667419,255.065063 
	C535.667419,328.146729 535.667419,401.237213 535.667419,474.669617 
	C532.531860,474.669617 529.455078,474.669617 525.646118,474.669617 
	C525.646118,455.319336 525.646118,435.909637 525.645996,415.999908 
z"/>
<path fill="#F6F8FB" opacity="1.000000" stroke="none" 
	d="
M420.118286,381.826904 
	C419.686920,385.733734 419.988739,389.630005 418.485199,392.617828 
	C417.645935,394.285645 413.827118,395.060577 411.315063,395.142853 
	C407.196594,395.277740 404.946320,392.057983 404.233429,388.538788 
	C403.311249,383.986481 403.890594,379.469727 408.227570,376.421936 
	C408.483307,376.242249 408.620972,375.901398 408.834290,375.653351 
	C411.116943,372.998596 410.387604,354.816711 407.893402,352.278442 
	C403.057220,347.356812 402.241638,339.076477 406.974854,335.485077 
	C409.156342,333.829865 413.518219,332.900604 415.774780,333.978943 
	C419.458557,335.739288 421.785858,339.878235 420.870758,344.340149 
	C420.155151,347.829254 419.697052,351.887268 415.266937,353.401062 
	C414.648651,353.612335 414.276978,355.260498 414.222198,356.266968 
	C414.077972,358.917786 414.255249,361.584747 414.152649,364.239441 
	C413.926727,370.085205 413.372223,375.993408 419.611328,379.561157 
	C420.002747,379.784943 419.945465,380.793304 420.118286,381.826904 
z"/>
</svg>